<?xml version="1.0" encoding="UTF-8" standalone="no"?>
<!-- Created with Inkscape (http://www.inkscape.org/) -->

<svg
   xmlns:dc="http://purl.org/dc/elements/1.1/"
   xmlns:cc="http://creativecommons.org/ns#"
   xmlns:rdf="http://www.w3.org/1999/02/22-rdf-syntax-ns#"
   xmlns:svg="http://www.w3.org/2000/svg"
   xmlns="http://www.w3.org/2000/svg"
   xmlns:sodipodi="http://sodipodi.sourceforge.net/DTD/sodipodi-0.dtd"
   xmlns:inkscape="http://www.inkscape.org/namespaces/inkscape"
   id="svg3336"
   version="1.1"
   inkscape:version="0.91 r13725"
   width="54.144466"
   height="14.992786"
   viewBox="0 0 54.144466 14.992786"
   sodipodi:docname="sprite.svg">
  <defs
     id="defs3342" />
  <sodipodi:namedview
     pagecolor="#ffffff"
     bordercolor="#666666"
     borderopacity="1"
     objecttolerance="10"
     gridtolerance="10"
     guidetolerance="10"
     inkscape:pageopacity="0"
     inkscape:pageshadow="2"
     inkscape:window-width="1366"
     inkscape:window-height="706"
     id="namedview3340"
     showgrid="false"
     fit-margin-top="0"
     fit-margin-left="0"
     fit-margin-right="0"
     fit-margin-bottom="0"
     inkscape:zoom="8"
     inkscape:cx="32.362868"
     inkscape:cy="9.6670999"
     inkscape:window-x="-8"
     inkscape:window-y="-8"
     inkscape:window-maximized="1"
     inkscape:current-layer="svg3336" />
  <metadata
     id="metadata3342">
    <rdf:RDF>
      <cc:Work
         rdf:about="">
        <dc:format>image/svg+xml</dc:format>
        <dc:type
           rdf:resource="http://purl.org/dc/dcmitype/StillImage" />
        <dc:title></dc:title>
      </cc:Work>
    </rdf:RDF>
  </metadata>
  <path
     d="m 14.386888,8.476038 c 0.04248,-0.308968 0.06609,-0.623626 0.06609,-0.943039 0,-3.836829 -3.106987,-6.94833496 -6.9380729,-6.94833496 -0.380466,0 -0.754315,0.03137 -1.116862,0.09125 C 5.746614,0.248112 4.971522,0 4.13792,0 1.851336,3.1e-5 0,1.867098 0,4.168626 c 0,0.837527 0.244505,1.616108 0.66652205,2.269225 -0.05665,0.357439 -0.0859001,0.722509 -0.0859001,1.095146 0,3.837798 3.10413105,6.948334 6.93524795,6.948334 0.4323911,0 0.8534462,-0.04278 1.2622352,-0.116926 0.635372,0.397375 1.3858999,0.628381 2.1874529,0.628381 2.287515,0 4.139813,-1.866129 4.139813,-4.168626 8.67e-4,-0.869832 -0.262515,-1.679808 -0.718479,-2.348124 z M 8.1653691,12.653233 C 5.960927,12.76922 4.929996,12.27678 3.9849661,11.385058 2.9294691,10.387824 3.3533821,9.250834 4.213444,9.192856 5.072575,9.134876 5.58804,10.172985 6.04686,10.461969 6.504748,10.750016 8.2475111,11.405979 9.1680081,10.345982 10.170616,9.192825 8.5014851,8.595842 7.277946,8.415215 5.531394,8.155687 3.3260231,7.20408 3.4978541,5.328445 3.669686,3.455657 5.078257,2.493603 6.561394,2.358601 8.4514551,2.185573 9.6825421,2.646649 10.655864,3.483239 11.781206,4.450044 11.172292,5.529993 10.455709,5.616492 9.7400881,5.702992 8.9394991,4.026997 7.363847,4.002292 5.740028,3.976622 4.643008,5.703959 6.647295,6.194493 c 2.0052161,0.490533 4.151116,0.692081 4.926208,2.537289 0.774163,1.845206 -1.202762,3.805462 -3.408134,3.921451 z"
     fill=""
     id="path3338"
     inkscape:connector-curvature="0"
     style="fill:#cccccc" />
  <g
     transform="matrix(1.0482143,0,0,1.0482143,19.356147,0.06114243)"
     id="g3346"
     style="fill:#cccccc">
    <path
       inkscape:connector-curvature="0"
       style="fill:#cccccc"
       d="M 7,9 5.268,7.484 0.316,11.729 C 0.496,11.896 0.739,12 1.007,12 l 11.986,0 c 0.267,0 0.509,-0.104 0.688,-0.271 L 8.732,7.484 7,9 Z"
       id="path3348" />
    <path
       inkscape:connector-curvature="0"
       style="fill:#cccccc"
       d="M 13.684,2.271 C 13.504,2.103 13.262,2 12.993,2 L 1.007,2 C 0.74,2 0.498,2.104 0.318,2.273 L 7,8 13.684,2.271 Z"
       id="path3350" />
    <polygon
       style="fill:#cccccc"
       points="0,2.878 0,11.186 4.833,7.079 "
       id="polygon3352" />
    <polygon
       style="fill:#cccccc"
       points="9.167,7.079 14,11.186 14,2.875 "
       id="polygon3354" />
  </g>
  <path
     inkscape:connector-curvature="0"
     d="M 52.225592,10.98235 50.201214,8.957745 C 49.797998,8.556148 49.130261,8.56835 48.712995,8.985765 L 47.693104,10.00543 C 47.628664,9.9699 47.561975,9.93283 47.491852,9.893467 46.847804,9.536611 45.96631,9.047491 45.038723,8.1192263 44.108386,7.1890063 43.618818,6.3061566 43.260865,5.6616927 43.223085,5.5934142 43.1869,5.5275883 43.151161,5.4650742 L 43.835656,4.781594 44.172183,4.4446575 c 0.417904,-0.4180217 0.429429,-1.0855689 0.02715,-1.4883356 L 42.174964,0.9314908 C 41.772689,0.5292896 41.10465,0.541492 40.686745,0.9595141 l -0.570542,0.5738149 0.01559,0.015458 c -0.191308,0.2441066 -0.351173,0.525649 -0.470138,0.8292601 -0.109666,0.2889951 -0.17794,0.5647732 -0.209158,0.8411171 -0.267306,2.2160264 0.74535,4.2413108 3.493581,6.9895748 3.798885,3.798622 6.860285,3.511656 6.992356,3.497649 0.287643,-0.03437 0.56331,-0.10312 0.843458,-0.211913 0.300972,-0.117571 0.582325,-0.277207 0.826281,-0.468105 l 0.01247,0.01105 0.578,-0.565981 c 0.417037,-0.417941 0.429049,-1.085716 0.02694,-1.489122 z"
     id="path3389"
     style="fill:#cccccc" />
</svg>
